<svg width="25" height="25" viewBox="0 0 25 25" fill="none" xmlns="http://www.w3.org/2000/svg">
<path d="M1.86348 5.82812C1.86348 5.82812 0.425862 5.93407 0.23418 6.23531C0.040269 6.53654 0.0291246 6.99981 0.0291246 7.50878C0.0291246 8.01984 0.00683594 9.19152 0.00683594 9.19152L0.350081 9.87916C0.350081 9.87916 0.414718 18.6439 0.414718 18.9161C0.414718 19.1861 0.414718 19.5165 0.833744 19.7263C1.25277 19.9361 11.9023 24.7309 12.2344 24.8597C12.7359 25.0529 12.9744 24.9802 12.9744 24.9802L24.8074 6.53446C24.8074 6.53446 24.7695 6.02964 24.2769 5.90915C23.9938 5.84267 1.86348 5.82812 1.86348 5.82812Z" fill="#F5B03E"/>
<path d="M12.8473 11.8923C12.6668 12.3556 12.7492 17.1462 12.7805 20.6301C12.8117 24.1119 12.6846 24.8328 12.7805 24.9532C12.8763 25.0737 13.1371 24.9574 13.8748 24.652C15.2456 24.0869 21.8296 21.0497 22.3133 20.7796C22.797 20.5096 23.9783 19.9507 24.1722 19.6495C24.3661 19.3483 24.4708 16.5458 24.5355 14.2959C24.6001 12.044 24.6647 10.2428 24.6647 10.2428L24.9545 9.4326C24.9545 9.4326 24.8921 7.24296 24.8809 7.00198C24.8609 6.60311 24.8141 6.39744 24.7049 6.4473C24.5488 6.51585 23.2472 7.51095 19.8014 9.0732C17.6371 10.0517 12.9721 11.5724 12.8473 11.8923Z" fill="#E07F14"/>
<path d="M12.8782 1.5651C11.9131 1.52355 9.27186 2.94661 6.7265 3.72565C4.18113 4.5047 0.338576 6.07109 0.305143 6.1625C0.273939 6.25183 1.85197 6.91039 2.85942 7.36119C4.05632 7.8951 8.62549 9.9123 9.46131 10.2426C10.2994 10.5729 12.2964 11.3457 12.6174 11.3229C13.0676 11.2938 17.3203 9.73157 19.4778 8.77178C21.6354 7.812 24.3323 6.32454 24.3679 5.96307C24.3835 5.80103 20.4006 4.41536 18.4146 3.57815C14.581 1.95982 13.5847 1.59626 12.8782 1.5651Z" fill="#FDD717"/>
<path d="M0.0178309 9.57586C0.0512638 9.96642 0.280837 10.1056 0.864798 10.3424C1.44876 10.5793 12.4883 15.9246 12.7424 15.9246C12.9965 15.9246 13.0723 15.077 12.7937 15.0998C12.6421 15.1123 9.01575 13.5064 5.62788 11.9026C2.75264 10.544 0 9.18738 0 9.18738L0.0178309 9.57586Z" fill="#E37D14"/>
<path d="M24.9564 9.41382C24.9564 9.41382 13.1679 15.0022 13.052 15.0562C12.9361 15.1102 12.7511 15.0915 12.7511 15.0915L12.7422 15.9246C12.7422 15.9246 12.8514 15.9474 12.974 15.9121C13.0453 15.8913 24.6153 10.3092 24.6666 10.2926C24.7179 10.276 24.9408 10.1513 24.9876 9.88748C25.0277 9.67558 24.9564 9.41382 24.9564 9.41382Z" fill="#BA5E0D"/>
<path d="M4.64049 19.4749L6.94736 22.6742L7.95703 22.9962C7.95703 22.9962 8.0395 19.5061 8.07293 16.9196C8.11974 13.1407 8.10191 9.69424 8.15986 9.49896C8.2557 9.16865 12.7424 7.81207 12.7424 7.81207C12.7424 7.81207 17.8108 9.2933 17.9713 9.62361C18.0426 9.76903 17.9869 12.2163 17.9713 15.0686C17.9513 18.6709 17.9579 22.83 17.9579 22.83C17.9579 22.83 18.4817 22.8279 18.5441 22.6472C18.6088 22.4664 18.8673 21.0725 18.8673 21.0725L20.8332 8.85911L21.8317 7.65834L20.4453 5.19864L14.7573 2.58936L12.8026 2.99861L10.6874 2.69738L3.97852 7.19091L4.76085 8.67006L6.6799 9.58206L4.64049 19.4749Z" fill="#AF0F1B"/>
<path d="M18.5533 9.49692C18.4308 9.74829 18.5021 22.7012 18.5021 22.7012C18.5021 22.7012 19.115 22.3854 19.904 22.0323C20.6886 21.6812 21.2525 21.463 21.3015 21.2802C21.3506 21.0974 21.4375 8.28784 21.4375 8.28784L18.5533 9.49692Z" fill="#DC0D28"/>
<path d="M7.42388 9.22883C7.49743 9.30362 7.37707 22.7447 7.22774 22.7759C7.10961 22.8029 4.42383 21.6852 4.42383 21.571C4.42383 21.4567 4.64003 8.61183 4.64003 8.61183C4.64003 8.61183 7.20545 9.00031 7.42388 9.22883ZM12.7464 2.19666C12.0042 2.19666 11.184 2.39401 10.9455 2.97362C10.707 3.55323 10.6535 4.41537 10.6535 5.05938C10.6535 5.67639 10.5465 7.25525 12.5859 7.23032C14.6253 7.20539 14.6855 6.50114 14.7167 4.9472C14.7435 3.65087 14.5585 3.0214 14.3735 2.75134C14.2085 2.50827 13.6602 2.19666 12.7464 2.19666Z" fill="#FF2A23"/>
<path d="M11.5683 5.40432C12.0319 5.42925 12.2303 4.47986 12.5869 3.96049C12.9435 3.44321 13.3158 3.09627 13.182 2.8262C13.0728 2.60184 12.1033 2.52913 11.5795 3.20845C11.2117 3.68835 11.1471 5.38147 11.5683 5.40432Z" fill="#FCC9D2"/>
<path d="M14.5518 2.64757C14.5518 2.64757 15.2093 3.27081 15.3809 4.49235C15.5525 5.71389 15.3541 6.66329 15.3541 6.66329C15.3541 6.66329 18.6217 6.57188 19.7495 6.77339C20.8617 6.97491 21.2495 7.43195 21.2495 7.76434C21.2495 8.09673 20.5184 8.36472 19.7762 8.31486C19.034 8.26501 18.5325 8.22761 18.4389 8.40212C18.3453 8.57662 18.479 8.84669 19.511 8.9194C20.5429 8.99419 21.7354 8.85708 22.1054 7.66047C22.4754 6.46385 22.4887 4.39056 22.3572 2.89687C22.2257 1.40318 21.936 0.549347 21.2183 0.225264C20.4627 -0.113361 18.5704 -0.169452 16.7828 0.767479C14.9953 1.70441 14.5518 2.64757 14.5518 2.64757Z" fill="#FF2A23"/>
<path d="M18.2546 1.22656C18.0228 0.948179 17.2761 0.956489 16.8772 1.38652C16.4537 1.84356 16.3601 3.58239 16.9039 3.68211C17.5191 3.79429 17.4076 2.85528 17.8578 2.27567C18.2992 1.70853 18.4797 1.4987 18.2546 1.22656Z" fill="#FCC9D2"/>
<path d="M10.7746 2.70785C10.7746 2.70785 8.27163 -0.0115367 5.412 0.0300123C3.69131 0.0549418 3.25446 0.979408 3.16085 1.36166C3.06723 1.74391 2.354 5.54565 3.30572 7.6044C4.25745 9.66316 6.23222 9.12926 6.54203 9.06278C6.93877 8.97552 7.78351 8.70545 7.70327 8.42084C7.62303 8.13623 4.81689 9.16042 4.79014 7.98873C4.7634 6.81705 6.77606 6.6924 7.70327 6.66747C8.63047 6.64254 10.2197 6.8399 10.2197 6.8399C10.2197 6.8399 9.94104 5.421 10.126 4.40928C10.311 3.39756 10.7746 2.70785 10.7746 2.70785Z" fill="#FF2A23"/>
<path d="M4.6455 1.01681C4.28888 1.36167 4.14178 3.34979 4.36689 4.33658C4.59201 5.32337 4.79038 5.74301 5.25398 5.65784C5.6418 5.58513 5.87583 3.64894 6.06083 2.96754C6.2592 2.24043 6.74955 1.46762 6.55118 1.12899C6.24805 0.609628 5.01772 0.657409 4.6455 1.01681Z" fill="#FCC9D2"/>
</svg>
