<svg width="25" height="25" viewBox="0 0 25 25" fill="none" xmlns="http://www.w3.org/2000/svg">
<path d="M1.86336 5.82812C1.86336 5.82812 0.42574 5.93407 0.234058 6.23531C0.0401469 6.53654 0.0290026 6.99981 0.0290026 7.50878C0.0290026 8.01984 0.00671387 9.19152 0.00671387 9.19152L0.349959 9.87916C0.349959 9.87916 0.414596 18.6439 0.414596 18.9161C0.414596 19.1861 0.414596 19.5165 0.833622 19.7263C1.25265 19.9361 11.9022 24.7309 12.2343 24.8597C12.7357 25.0529 12.9742 24.9802 12.9742 24.9802L24.8073 6.53446C24.8073 6.53446 24.7694 6.02964 24.2768 5.90915C23.9937 5.84267 1.86336 5.82812 1.86336 5.82812Z" fill="#F5B03E"/>
<path d="M12.8472 11.8923C12.6667 12.3556 12.7491 17.1462 12.7803 20.6301C12.8115 24.1119 12.6845 24.8328 12.7803 24.9532C12.8762 25.0737 13.1369 24.9574 13.8747 24.652C15.2455 24.0869 21.8295 21.0497 22.3132 20.7796C22.7968 20.5096 23.9781 19.9507 24.172 19.6495C24.366 19.3483 24.4707 16.5458 24.5353 14.2959C24.6 12.044 24.6646 10.2428 24.6646 10.2428L24.9544 9.4326C24.9544 9.4326 24.892 7.24296 24.8808 7.00198C24.8608 6.60311 24.814 6.39744 24.7047 6.4473C24.5487 6.51585 23.2471 7.51095 19.8012 9.0732C17.637 10.0517 12.972 11.5724 12.8472 11.8923Z" fill="#E07F14"/>
<path d="M12.8784 1.5651C11.9133 1.52355 9.2721 2.94661 6.72674 3.72565C4.18138 4.5047 0.33882 6.07109 0.305387 6.1625C0.274183 6.25183 1.85222 6.91039 2.85966 7.36119C4.05656 7.8951 8.62573 9.9123 9.46155 10.2426C10.2996 10.5729 12.2967 11.3457 12.6176 11.3229C13.0679 11.2938 17.3205 9.73157 19.4781 8.77178C21.6356 7.812 24.3325 6.32454 24.3682 5.96307C24.3838 5.80103 20.4008 4.41536 18.4149 3.57815C14.5813 1.95982 13.5849 1.59626 12.8784 1.5651Z" fill="#FDD717"/>
<path d="M0.0178309 9.57574C0.0512638 9.9663 0.280837 10.1055 0.864798 10.3423C1.44876 10.5791 12.4883 15.9244 12.7424 15.9244C12.9965 15.9244 13.0723 15.0768 12.7937 15.0997C12.6421 15.1122 9.01575 13.5063 5.62788 11.9025C2.75264 10.5438 0 9.18726 0 9.18726L0.0178309 9.57574Z" fill="#E37D14"/>
<path d="M24.9566 9.41382C24.9566 9.41382 13.1681 15.0022 13.0522 15.0562C12.9363 15.1102 12.7513 15.0915 12.7513 15.0915L12.7424 15.9246C12.7424 15.9246 12.8516 15.9474 12.9742 15.9121C13.0456 15.8913 24.6156 10.3092 24.6668 10.2926C24.7181 10.276 24.941 10.1513 24.9878 9.88748C25.0279 9.67558 24.9566 9.41382 24.9566 9.41382Z" fill="#BA5E0D"/>
<path d="M4.64049 19.4749L6.94736 22.6742L7.95703 22.9962C7.95703 22.9962 8.0395 19.5061 8.07293 16.9196C8.11974 13.1407 8.10191 9.69424 8.15986 9.49896C8.2557 9.16865 12.7424 7.81207 12.7424 7.81207C12.7424 7.81207 17.8108 9.2933 17.9713 9.62361C18.0426 9.76903 17.9869 12.2163 17.9713 15.0686C17.9513 18.6709 17.9579 22.83 17.9579 22.83C17.9579 22.83 18.4817 22.8279 18.5441 22.6472C18.6088 22.4664 18.8673 21.0725 18.8673 21.0725L20.8332 8.85911L21.8317 7.65834L20.4453 5.19864L14.7573 2.58936L12.8026 2.99861L10.6874 2.69738L3.97852 7.19091L4.76085 8.67006L6.6799 9.58206L4.64049 19.4749Z" fill="#AF0F1B"/>
<path d="M18.5531 9.49692C18.4305 9.74829 18.5018 22.7012 18.5018 22.7012C18.5018 22.7012 19.1148 22.3854 19.9038 22.0323C20.6883 21.6812 21.2522 21.463 21.3013 21.2802C21.3503 21.0974 21.4372 8.28784 21.4372 8.28784L18.5531 9.49692Z" fill="#DC0D28"/>
<path d="M7.4243 9.22895C7.49786 9.30374 7.3775 22.7449 7.22816 22.776C7.11004 22.803 4.42426 21.6854 4.42426 21.5711C4.42426 21.4568 4.64046 8.61195 4.64046 8.61195C4.64046 8.61195 7.20588 9.00043 7.4243 9.22895ZM12.7468 2.19678C12.0046 2.19678 11.1844 2.39414 10.9459 2.97374C10.7074 3.55335 10.6539 4.4155 10.6539 5.05951C10.6539 5.67651 10.5469 7.25537 12.5864 7.23044C14.6258 7.20551 14.6859 6.50126 14.7171 4.94732C14.7439 3.65099 14.5589 3.02153 14.3739 2.75146C14.209 2.5084 13.6607 2.19678 12.7468 2.19678Z" fill="#FF2A23"/>
<path d="M11.5678 5.40444C12.0314 5.42937 12.2298 4.47998 12.5864 3.96061C12.9431 3.44333 13.3153 3.09639 13.1815 2.82633C13.0723 2.60196 12.1028 2.52925 11.579 3.20858C11.2112 3.68847 11.1466 5.38159 11.5678 5.40444Z" fill="#FCC9D2"/>
<path d="M14.5522 2.64757C14.5522 2.64757 15.2098 3.27081 15.3814 4.49235C15.553 5.71389 15.3546 6.66329 15.3546 6.66329C15.3546 6.66329 18.6221 6.57188 19.75 6.77339C20.8622 6.97491 21.25 7.43195 21.25 7.76434C21.25 8.09673 20.5189 8.36472 19.7767 8.31486C19.0345 8.26501 18.533 8.22761 18.4394 8.40212C18.3458 8.57662 18.4795 8.84669 19.5115 8.9194C20.5434 8.99419 21.7359 8.85708 22.1059 7.66047C22.4759 6.46385 22.4892 4.39056 22.3577 2.89687C22.2262 1.40318 21.9365 0.549347 21.2188 0.225264C20.4632 -0.113361 18.5709 -0.169452 16.7833 0.767479C14.9958 1.70441 14.5522 2.64757 14.5522 2.64757Z" fill="#FF2A23"/>
<path d="M18.2543 1.22656C18.0225 0.948179 17.2759 0.956489 16.8769 1.38652C16.4534 1.84356 16.3598 3.58239 16.9037 3.68211C17.5188 3.79429 17.4074 2.85528 17.8576 2.27567C18.2989 1.70853 18.4795 1.4987 18.2543 1.22656Z" fill="#FCC9D2"/>
<path d="M10.7743 2.70785C10.7743 2.70785 8.27126 -0.0115367 5.41163 0.0300123C3.69095 0.0549418 3.25409 0.979408 3.16048 1.36166C3.06687 1.74391 2.35363 5.54565 3.30536 7.6044C4.25708 9.66316 6.23185 9.12926 6.54166 9.06278C6.9384 8.97552 7.78314 8.70545 7.7029 8.42084C7.62266 8.13623 4.81652 9.16042 4.78978 7.98873C4.76303 6.81705 6.77569 6.6924 7.7029 6.66747C8.63011 6.64254 10.2193 6.8399 10.2193 6.8399C10.2193 6.8399 9.94068 5.421 10.1257 4.40928C10.3107 3.39756 10.7743 2.70785 10.7743 2.70785Z" fill="#FF2A23"/>
<path d="M4.64501 1.01681C4.28839 1.36167 4.14129 3.34979 4.3664 4.33658C4.59152 5.32337 4.78989 5.74301 5.25349 5.65784C5.64131 5.58513 5.87534 3.64894 6.06034 2.96754C6.25871 2.24043 6.74906 1.46762 6.55069 1.12899C6.24756 0.609628 5.01723 0.657409 4.64501 1.01681Z" fill="#FCC9D2"/>
</svg>
